<svg width="48" height="48" viewBox="0 0 48 48" fill="none" xmlns="http://www.w3.org/2000/svg">
<path fill-rule="evenodd" clip-rule="evenodd" d="M21.0565 4.5666C21.955 4.0607 22.9688 3.79492 24 3.79492C25.0312 3.79492 26.045 4.0607 26.9436 4.5666C27.8422 5.07251 28.5952 5.80147 29.13 6.68315L29.1358 6.69265L29.1358 6.69267L46.0758 34.9727L46.092 35.0003C46.6159 35.9076 46.8931 36.9362 46.8961 37.9838C46.899 39.0315 46.6275 40.0617 46.1087 40.9719C45.5899 41.8821 44.8418 42.6405 43.9389 43.1718C43.036 43.7031 42.0096 43.9888 40.962 44.0003L40.94 44.0005V44.0004H7.06004H7.03806L7.03806 44.0003C5.99045 43.9888 4.96412 43.7031 4.06118 43.1718C3.15824 42.6405 2.41015 41.8821 1.89134 40.9719C1.37253 40.0617 1.10109 39.0315 1.10403 37.9838C1.10696 36.9362 1.38417 35.9076 1.90806 35.0003L1.92431 34.9727L18.8643 6.69267L20.58 7.72041L18.87 6.68315C19.4049 5.80147 20.1579 5.07251 21.0565 4.5666ZM22.2925 8.75369L5.36542 37.0121C5.19506 37.3117 5.10498 37.6503 5.10401 37.995C5.10303 38.3443 5.19351 38.6877 5.36645 38.9911C5.53939 39.2945 5.78875 39.5473 6.08973 39.7244C6.38808 39.8999 6.72683 39.995 7.07283 40.0004H40.9272C41.2732 39.995 41.612 39.8999 41.9103 39.7244C42.2113 39.5473 42.4607 39.2945 42.6336 38.9911C42.8066 38.6877 42.897 38.3443 42.8961 37.995C42.8951 37.6503 42.805 37.3116 42.6347 37.012L25.71 8.75767L25.7076 8.75368C25.5295 8.46158 25.2794 8.22002 24.9812 8.05215C24.6817 7.88351 24.3438 7.79492 24 7.79492C23.6563 7.79492 23.3184 7.88351 23.0188 8.05215C22.7207 8.22002 22.4706 8.46158 22.2925 8.75369ZM24 16.0004C25.1046 16.0004 26 16.8958 26 18.0004V26.0004C26 27.1049 25.1046 28.0004 24 28.0004C22.8954 28.0004 22 27.1049 22 26.0004V18.0004C22 16.8958 22.8954 16.0004 24 16.0004ZM24 32.0004C22.8954 32.0004 22 32.8958 22 34.0004C22 35.1049 22.8954 36.0004 24 36.0004H24.02C25.1246 36.0004 26.02 35.1049 26.02 34.0004C26.02 32.8958 25.1246 32.0004 24.02 32.0004H24Z" fill="white"/>
</svg>
