<svg width="16" height="16" viewBox="0 0 16 16" fill="none" xmlns="http://www.w3.org/2000/svg">
<g clip-path="url(#clip0_944_6217)">
<path fill-rule="evenodd" clip-rule="evenodd" d="M13.3332 1.91927C13.1349 1.91927 12.9448 1.99803 12.8046 2.13822L6.60181 8.34098L6.24942 9.75057L7.659 9.39817L13.8618 3.19541C14.002 3.05522 14.0807 2.86508 14.0807 2.66682C14.0807 2.46856 14.002 2.27841 13.8618 2.13822C13.7216 1.99803 13.5314 1.91927 13.3332 1.91927ZM11.8618 1.19541C12.252 0.805172 12.7813 0.585938 13.3332 0.585938C13.8851 0.585938 14.4143 0.805173 14.8046 1.19541C15.1948 1.58565 15.4141 2.11493 15.4141 2.66682C15.4141 3.2187 15.1948 3.74798 14.8046 4.13822L8.47124 10.4716C8.3858 10.557 8.27875 10.6176 8.16153 10.6469L5.49486 11.3136C5.26768 11.3704 5.02735 11.3038 4.86177 11.1382C4.69618 10.9726 4.62961 10.7323 4.68641 10.5051L5.35308 7.83846C5.38238 7.72124 5.44299 7.61419 5.52843 7.52875L11.8618 1.19541ZM1.25229 2.58597C1.62736 2.2109 2.13607 2.00018 2.6665 2.00018H7.33317C7.70136 2.00018 7.99984 2.29866 7.99984 2.66685C7.99984 3.03504 7.70136 3.33352 7.33317 3.33352H2.6665C2.48969 3.33352 2.32012 3.40376 2.1951 3.52878C2.07008 3.6538 1.99984 3.82337 1.99984 4.00018V13.3335C1.99984 13.5103 2.07007 13.6799 2.1951 13.8049C2.32012 13.9299 2.48969 14.0002 2.6665 14.0002H11.9998C12.1766 14.0002 12.3462 13.9299 12.4712 13.8049C12.5963 13.6799 12.6665 13.5103 12.6665 13.3335V8.66685C12.6665 8.29866 12.965 8.00018 13.3332 8.00018C13.7014 8.00018 13.9998 8.29866 13.9998 8.66685V13.3335C13.9998 13.864 13.7891 14.3727 13.4141 14.7477C13.039 15.1228 12.5303 15.3335 11.9998 15.3335H2.6665C2.13607 15.3335 1.62736 15.1228 1.25229 14.7477C0.877218 14.3727 0.666504 13.864 0.666504 13.3335V4.00018C0.666504 3.46975 0.877217 2.96104 1.25229 2.58597Z" fill="white"/>
</g>
<defs>
<clipPath id="clip0_944_6217">
<rect width="16" height="16" fill="white"/>
</clipPath>
</defs>
</svg>
