<svg width="189" height="232" viewBox="0 0 189 232" fill="none" xmlns="http://www.w3.org/2000/svg">
<path d="M167.188 69.444L167.125 69.381C164.023 66.2796 159.018 66.2796 155.954 69.381C152.853 72.4823 152.853 77.4873 155.954 80.5508L156.017 80.6139C159.119 83.7152 164.124 83.7152 167.188 80.6139C170.252 77.5125 170.29 72.5075 167.188 69.444Z" fill="white"/>
<path d="M21.8751 80.6014C24.9768 83.7028 29.9822 83.7028 33.046 80.6014C36.1477 77.5 36.1477 72.495 33.046 69.4315L32.983 69.3685C29.8813 66.2671 24.8759 66.2671 21.8121 69.3685C18.7482 72.4699 18.7104 77.4749 21.8121 80.5384L21.8751 80.6014Z" fill="white"/>
<path d="M100.047 147.674L100.11 147.611C103.212 144.509 103.212 139.505 100.11 136.441C97.0088 133.34 92.0034 133.34 88.9396 136.441L88.8765 136.504C85.7749 139.605 85.7749 144.61 88.8765 147.674C91.9782 150.775 96.9837 150.775 100.047 147.674Z" fill="white"/>
<path d="M120.221 65.7647C115.254 70.732 115.254 78.8006 120.284 83.8435C122.768 86.3271 126.034 87.5499 129.287 87.5499C132.552 87.5499 135.805 86.327 138.289 83.8435C140.71 81.4229 142.034 78.2333 142.034 74.8419C142.034 71.4505 140.71 68.223 138.227 65.7773C133.259 60.8099 125.189 60.8099 120.222 65.7773L120.221 65.7647Z" fill="white"/>
<path d="M103.311 100.712C98.3432 95.7442 90.2739 95.7442 85.3064 100.712C80.3386 105.679 80.3386 113.748 85.3694 118.79C87.7902 121.211 90.9802 122.535 94.3719 122.535C97.7636 122.535 100.991 121.211 103.374 118.79C108.342 113.823 108.342 105.754 103.311 100.712Z" fill="white"/>
<path d="M50.7602 84.2194C53.244 86.703 56.5094 87.9258 59.7627 87.9258C63.0282 87.9258 66.2811 86.7029 68.7652 84.2194C73.733 79.252 73.733 71.1834 68.7021 66.1406C63.7343 61.1732 55.665 61.1732 50.6975 66.1406C48.2767 68.5611 46.9526 71.7508 46.9526 75.1422C46.9526 78.5336 48.2765 81.761 50.7604 84.2068L50.7602 84.2194Z" fill="white"/>
<path d="M130.773 122.306C136.61 122.306 141.363 117.566 141.363 111.716C141.363 105.879 136.623 101.126 130.773 101.126H130.647C124.809 101.126 120.056 105.867 120.056 111.716C120.056 117.553 124.797 122.306 130.647 122.306H130.773Z" fill="white"/>
<path d="M58.3517 101.141H58.2256C52.3879 101.141 47.6348 105.881 47.6348 111.731C47.6348 117.568 52.3757 122.32 58.2256 122.32H58.3517C64.1894 122.32 68.9426 117.58 68.9426 111.731C68.9426 105.893 64.2017 101.141 58.3517 101.141Z" fill="white"/>
<path d="M94.4629 58.666C98.8252 58.666 102.923 60.3807 105.987 63.4442C112.405 69.8233 112.405 80.1611 106.05 86.5153C102.948 89.6168 98.8885 91.2935 94.5259 91.2935C90.1636 91.2935 86.0658 89.5788 83.0019 86.5153C76.5841 80.1362 76.5841 69.7984 82.9389 63.4442C86.0404 60.3428 90.1003 58.666 94.4629 58.666Z" fill="white"/>
<path d="M100.11 13.4817L100.047 13.5448C96.9837 16.6461 91.9782 16.6083 88.8765 13.5448C85.7749 10.4813 85.7749 5.47628 88.8765 2.37491L88.9396 2.31187C92.0034 -0.789507 97.0088 -0.751682 100.11 2.31187C103.212 5.37536 103.212 10.3803 100.11 13.4817Z" fill="white"/>
<path d="M130.773 27.6777H130.647C124.809 27.6777 120.056 32.4182 120.056 38.2676C120.056 44.1048 124.797 48.8575 130.647 48.8575H130.773C136.61 48.8575 141.363 44.117 141.363 38.2676C141.363 32.4305 136.623 27.6777 130.773 27.6777Z" fill="white"/>
<path d="M85.6871 49.2724C88.171 51.7561 91.4364 52.9788 94.6896 52.9788C97.9551 52.9788 101.208 51.7559 103.692 49.2724C108.66 44.3051 108.66 36.2365 103.629 31.1936C98.8252 26.3902 90.4283 26.3902 85.6244 31.1936C80.6566 36.161 80.6563 44.2296 85.6871 49.2724Z" fill="white"/>
<path d="M58.3522 48.8433H58.2261C52.3762 48.8433 47.6353 44.0906 47.6353 38.2534C47.6353 32.404 52.3884 27.6636 58.2261 27.6636H58.3522C64.2022 27.6636 68.943 32.4163 68.943 38.2534C68.943 44.1029 64.1899 48.8433 58.3522 48.8433Z" fill="white"/>
<path d="M173.582 221.43C171.069 221.43 168.934 221.299 167.176 221.039C165.418 220.792 163.999 220.277 162.918 219.496C161.837 218.702 161.049 217.517 160.555 215.941C160.06 214.366 159.812 212.263 159.812 209.633C159.812 207.081 160.06 205.036 160.555 203.5C161.049 201.964 161.837 200.805 162.918 200.023C163.999 199.242 165.418 198.721 167.176 198.461C168.934 198.201 171.069 198.07 173.582 198.07C176.59 198.07 179.064 198.246 181.004 198.598C182.957 198.936 184.402 199.639 185.34 200.707C186.277 201.775 186.746 203.402 186.746 205.59H183.152C183.152 204.327 182.892 203.383 182.371 202.758C181.85 202.133 180.9 201.716 179.52 201.508C178.139 201.299 176.16 201.195 173.582 201.195C171.264 201.195 169.428 201.293 168.074 201.488C166.72 201.684 165.724 202.068 165.086 202.641C164.448 203.201 164.031 204.04 163.836 205.16C163.654 206.28 163.562 207.771 163.562 209.633C163.562 211.56 163.654 213.103 163.836 214.262C164.031 215.421 164.448 216.293 165.086 216.879C165.724 217.452 166.72 217.836 168.074 218.031C169.428 218.214 171.264 218.305 173.582 218.305C175.548 218.305 177.156 218.253 178.406 218.148C179.656 218.031 180.626 217.81 181.316 217.484C182.007 217.146 182.482 216.664 182.742 216.039C183.016 215.401 183.152 214.555 183.152 213.5H186.746C186.746 215.245 186.486 216.645 185.965 217.699C185.444 218.754 184.65 219.548 183.582 220.082C182.514 220.616 181.147 220.974 179.48 221.156C177.827 221.339 175.861 221.43 173.582 221.43Z" fill="white"/>
<path d="M155.574 214.32C155.574 216 155.32 217.322 154.812 218.285C154.318 219.249 153.556 219.952 152.527 220.395C151.499 220.837 150.184 221.117 148.582 221.234C146.993 221.365 145.099 221.43 142.898 221.43C140.385 221.43 138.25 221.299 136.492 221.039C134.747 220.792 133.335 220.277 132.254 219.496C131.186 218.702 130.405 217.517 129.91 215.941C129.428 214.366 129.188 212.263 129.188 209.633C129.188 207.081 129.422 205.036 129.891 203.5C130.372 201.964 131.147 200.805 132.215 200.023C133.283 199.242 134.682 198.721 136.414 198.461C138.159 198.201 140.288 198.07 142.801 198.07C145.678 198.07 148.061 198.272 149.949 198.676C151.837 199.079 153.243 199.848 154.168 200.98C155.105 202.113 155.574 203.773 155.574 205.961V210.785H132.957C132.97 212.452 133.087 213.786 133.309 214.789C133.53 215.792 133.973 216.547 134.637 217.055C135.301 217.562 136.29 217.901 137.605 218.07C138.934 218.227 140.698 218.305 142.898 218.305C144.878 218.305 146.473 218.266 147.684 218.188C148.908 218.109 149.832 217.94 150.457 217.68C151.095 217.406 151.525 217.003 151.746 216.469C151.967 215.935 152.078 215.219 152.078 214.32H155.574ZM142.801 201.195C140.678 201.195 138.966 201.273 137.664 201.43C136.375 201.586 135.392 201.892 134.715 202.348C134.038 202.79 133.576 203.454 133.328 204.34C133.094 205.225 132.97 206.391 132.957 207.836H151.98V205.961C151.98 205.023 151.87 204.249 151.648 203.637C151.44 203.012 151.023 202.523 150.398 202.172C149.773 201.807 148.849 201.553 147.625 201.41C146.414 201.267 144.806 201.195 142.801 201.195Z" fill="white"/>
<path d="M98.6016 221V198.5H102.352V201.488C102.911 200.733 103.602 200.102 104.422 199.594C105.255 199.086 106.362 198.708 107.742 198.461C109.135 198.201 110.958 198.07 113.211 198.07C116.154 198.07 118.471 198.357 120.164 198.93C121.87 199.503 123.081 200.525 123.797 201.996C124.513 203.467 124.871 205.551 124.871 208.246V221H121.102V208.246C121.102 206.71 120.971 205.473 120.711 204.535C120.451 203.598 120.001 202.888 119.363 202.406C118.738 201.924 117.872 201.605 116.766 201.449C115.659 201.28 114.253 201.195 112.547 201.195C109.943 201.195 107.898 201.41 106.414 201.84C104.93 202.27 103.882 202.947 103.27 203.871C102.658 204.783 102.352 205.974 102.352 207.445V221H98.6016Z" fill="white"/>
<path d="M67.3125 221V198.5H71.0625V201.488C71.6224 200.733 72.3125 200.102 73.1328 199.594C73.9661 199.086 75.0729 198.708 76.4531 198.461C77.8464 198.201 79.6693 198.07 81.9219 198.07C84.8646 198.07 87.1823 198.357 88.875 198.93C90.5807 199.503 91.7917 200.525 92.5078 201.996C93.224 203.467 93.582 205.551 93.582 208.246V221H89.8125V208.246C89.8125 206.71 89.6823 205.473 89.4219 204.535C89.1615 203.598 88.7122 202.888 88.0742 202.406C87.4492 201.924 86.5833 201.605 85.4766 201.449C84.3698 201.28 82.9635 201.195 81.2578 201.195C78.6536 201.195 76.6094 201.41 75.125 201.84C73.6406 202.27 72.5924 202.947 71.9805 203.871C71.3685 204.783 71.0625 205.974 71.0625 207.445V221H67.3125Z" fill="white"/>
<path d="M62.3711 214.32C62.3711 216 62.1172 217.322 61.6094 218.285C61.1146 219.249 60.3529 219.952 59.3242 220.395C58.2956 220.837 56.9805 221.117 55.3789 221.234C53.7904 221.365 51.8958 221.43 49.6953 221.43C47.1823 221.43 45.0469 221.299 43.2891 221.039C41.5443 220.792 40.1315 220.277 39.0508 219.496C37.9831 218.702 37.2018 217.517 36.707 215.941C36.2253 214.366 35.9844 212.263 35.9844 209.633C35.9844 207.081 36.2188 205.036 36.6875 203.5C37.1693 201.964 37.944 200.805 39.0117 200.023C40.0794 199.242 41.4792 198.721 43.2109 198.461C44.9557 198.201 47.0846 198.07 49.5977 198.07C52.4753 198.07 54.8581 198.272 56.7461 198.676C58.6341 199.079 60.0404 199.848 60.9648 200.98C61.9023 202.113 62.3711 203.773 62.3711 205.961V210.785H39.7539C39.7669 212.452 39.8841 213.786 40.1055 214.789C40.3268 215.792 40.7695 216.547 41.4336 217.055C42.0977 217.562 43.0872 217.901 44.4023 218.07C45.7305 218.227 47.4948 218.305 49.6953 218.305C51.6745 218.305 53.2695 218.266 54.4805 218.188C55.7044 218.109 56.6289 217.94 57.2539 217.68C57.8919 217.406 58.3216 217.003 58.543 216.469C58.7643 215.935 58.875 215.219 58.875 214.32H62.3711ZM49.5977 201.195C47.4753 201.195 45.763 201.273 44.4609 201.43C43.1719 201.586 42.1888 201.892 41.5117 202.348C40.8346 202.79 40.3724 203.454 40.125 204.34C39.8906 205.225 39.7669 206.391 39.7539 207.836H58.7773V205.961C58.7773 205.023 58.6667 204.249 58.4453 203.637C58.237 203.012 57.8203 202.523 57.1953 202.172C56.5703 201.807 55.6458 201.553 54.4219 201.41C53.2109 201.267 51.6029 201.195 49.5977 201.195Z" fill="white"/>
<path d="M4.10938 221V191H32.3906V194.125H7.85938V204.125H31.2773V207.25H7.85938V221H4.10938Z" fill="white"/>
</svg>
