<svg width="183" height="31" viewBox="0 0 183 31" fill="none" xmlns="http://www.w3.org/2000/svg">
<path d="M169.473 30.4297C166.96 30.4297 164.824 30.2995 163.066 30.0391C161.309 29.7917 159.889 29.2773 158.809 28.4961C157.728 27.7018 156.94 26.5169 156.445 24.9414C155.951 23.3659 155.703 21.263 155.703 18.6328C155.703 16.0807 155.951 14.0365 156.445 12.5C156.94 10.9635 157.728 9.80469 158.809 9.02344C159.889 8.24219 161.309 7.72135 163.066 7.46094C164.824 7.20052 166.96 7.07031 169.473 7.07031C172.48 7.07031 174.954 7.24609 176.895 7.59766C178.848 7.9362 180.293 8.63932 181.23 9.70703C182.168 10.7747 182.637 12.4023 182.637 14.5898H179.043C179.043 13.3268 178.783 12.3828 178.262 11.7578C177.741 11.1328 176.79 10.7161 175.41 10.5078C174.03 10.2995 172.051 10.1953 169.473 10.1953C167.155 10.1953 165.319 10.293 163.965 10.4883C162.611 10.6836 161.615 11.0677 160.977 11.6406C160.339 12.2005 159.922 13.0404 159.727 14.1602C159.544 15.2799 159.453 16.7708 159.453 18.6328C159.453 20.5599 159.544 22.1029 159.727 23.2617C159.922 24.4206 160.339 25.293 160.977 25.8789C161.615 26.4518 162.611 26.8359 163.965 27.0312C165.319 27.2135 167.155 27.3047 169.473 27.3047C171.439 27.3047 173.047 27.2526 174.297 27.1484C175.547 27.0312 176.517 26.8099 177.207 26.4844C177.897 26.1458 178.372 25.6641 178.633 25.0391C178.906 24.401 179.043 23.5547 179.043 22.5H182.637C182.637 24.2448 182.376 25.6445 181.855 26.6992C181.335 27.7539 180.54 28.5482 179.473 29.082C178.405 29.6159 177.038 29.974 175.371 30.1562C173.717 30.3385 171.751 30.4297 169.473 30.4297Z" fill="white"/>
<path d="M151.465 23.3203C151.465 25 151.211 26.3216 150.703 27.2852C150.208 28.2487 149.447 28.9518 148.418 29.3945C147.389 29.8372 146.074 30.1172 144.473 30.2344C142.884 30.3646 140.99 30.4297 138.789 30.4297C136.276 30.4297 134.141 30.2995 132.383 30.0391C130.638 29.7917 129.225 29.2773 128.145 28.4961C127.077 27.7018 126.296 26.5169 125.801 24.9414C125.319 23.3659 125.078 21.263 125.078 18.6328C125.078 16.0807 125.312 14.0365 125.781 12.5C126.263 10.9635 127.038 9.80469 128.105 9.02344C129.173 8.24219 130.573 7.72135 132.305 7.46094C134.049 7.20052 136.178 7.07031 138.691 7.07031C141.569 7.07031 143.952 7.27214 145.84 7.67578C147.728 8.07943 149.134 8.84766 150.059 9.98047C150.996 11.1133 151.465 12.7734 151.465 14.9609V19.7852H128.848C128.861 21.4518 128.978 22.7865 129.199 23.7891C129.421 24.7917 129.863 25.5469 130.527 26.0547C131.191 26.5625 132.181 26.901 133.496 27.0703C134.824 27.2266 136.589 27.3047 138.789 27.3047C140.768 27.3047 142.363 27.2656 143.574 27.1875C144.798 27.1094 145.723 26.9401 146.348 26.6797C146.986 26.4062 147.415 26.0026 147.637 25.4688C147.858 24.9349 147.969 24.2188 147.969 23.3203H151.465ZM138.691 10.1953C136.569 10.1953 134.857 10.2734 133.555 10.4297C132.266 10.5859 131.283 10.8919 130.605 11.3477C129.928 11.7904 129.466 12.4544 129.219 13.3398C128.984 14.2253 128.861 15.3906 128.848 16.8359H147.871V14.9609C147.871 14.0234 147.76 13.2487 147.539 12.6367C147.331 12.0117 146.914 11.5234 146.289 11.1719C145.664 10.8073 144.74 10.5534 143.516 10.4102C142.305 10.2669 140.697 10.1953 138.691 10.1953Z" fill="white"/>
<path d="M94.4922 30V7.5H98.2422V10.4883C98.8021 9.73307 99.4922 9.10156 100.312 8.59375C101.146 8.08594 102.253 7.70833 103.633 7.46094C105.026 7.20052 106.849 7.07031 109.102 7.07031C112.044 7.07031 114.362 7.35677 116.055 7.92969C117.76 8.5026 118.971 9.52474 119.688 10.9961C120.404 12.4674 120.762 14.5508 120.762 17.2461V30H116.992V17.2461C116.992 15.7096 116.862 14.4727 116.602 13.5352C116.341 12.5977 115.892 11.888 115.254 11.4062C114.629 10.9245 113.763 10.6055 112.656 10.4492C111.549 10.2799 110.143 10.1953 108.438 10.1953C105.833 10.1953 103.789 10.4102 102.305 10.8398C100.82 11.2695 99.7721 11.9466 99.1602 12.8711C98.5482 13.7826 98.2422 14.974 98.2422 16.4453V30H94.4922Z" fill="white"/>
<path d="M63.2031 30V7.5H66.9531V10.4883C67.513 9.73307 68.2031 9.10156 69.0234 8.59375C69.8568 8.08594 70.9635 7.70833 72.3438 7.46094C73.737 7.20052 75.5599 7.07031 77.8125 7.07031C80.7552 7.07031 83.0729 7.35677 84.7656 7.92969C86.4714 8.5026 87.6823 9.52474 88.3984 10.9961C89.1146 12.4674 89.4727 14.5508 89.4727 17.2461V30H85.7031V17.2461C85.7031 15.7096 85.5729 14.4727 85.3125 13.5352C85.0521 12.5977 84.6029 11.888 83.9648 11.4062C83.3398 10.9245 82.474 10.6055 81.3672 10.4492C80.2604 10.2799 78.8542 10.1953 77.1484 10.1953C74.5443 10.1953 72.5 10.4102 71.0156 10.8398C69.5312 11.2695 68.4831 11.9466 67.8711 12.8711C67.2591 13.7826 66.9531 14.974 66.9531 16.4453V30H63.2031Z" fill="white"/>
<path d="M58.2617 23.3203C58.2617 25 58.0078 26.3216 57.5 27.2852C57.0052 28.2487 56.2435 28.9518 55.2148 29.3945C54.1862 29.8372 52.8711 30.1172 51.2695 30.2344C49.681 30.3646 47.7865 30.4297 45.5859 30.4297C43.0729 30.4297 40.9375 30.2995 39.1797 30.0391C37.4349 29.7917 36.0221 29.2773 34.9414 28.4961C33.8737 27.7018 33.0924 26.5169 32.5977 24.9414C32.1159 23.3659 31.875 21.263 31.875 18.6328C31.875 16.0807 32.1094 14.0365 32.5781 12.5C33.0599 10.9635 33.8346 9.80469 34.9023 9.02344C35.9701 8.24219 37.3698 7.72135 39.1016 7.46094C40.8464 7.20052 42.9753 7.07031 45.4883 7.07031C48.3659 7.07031 50.7487 7.27214 52.6367 7.67578C54.5247 8.07943 55.931 8.84766 56.8555 9.98047C57.793 11.1133 58.2617 12.7734 58.2617 14.9609V19.7852H35.6445C35.6576 21.4518 35.7747 22.7865 35.9961 23.7891C36.2174 24.7917 36.6602 25.5469 37.3242 26.0547C37.9883 26.5625 38.9779 26.901 40.293 27.0703C41.6211 27.2266 43.3854 27.3047 45.5859 27.3047C47.5651 27.3047 49.1602 27.2656 50.3711 27.1875C51.5951 27.1094 52.5195 26.9401 53.1445 26.6797C53.7826 26.4062 54.2122 26.0026 54.4336 25.4688C54.6549 24.9349 54.7656 24.2188 54.7656 23.3203H58.2617ZM45.4883 10.1953C43.3659 10.1953 41.6536 10.2734 40.3516 10.4297C39.0625 10.5859 38.0794 10.8919 37.4023 11.3477C36.7253 11.7904 36.263 12.4544 36.0156 13.3398C35.7812 14.2253 35.6576 15.3906 35.6445 16.8359H54.668V14.9609C54.668 14.0234 54.5573 13.2487 54.3359 12.6367C54.1276 12.0117 53.7109 11.5234 53.0859 11.1719C52.4609 10.8073 51.5365 10.5534 50.3125 10.4102C49.1016 10.2669 47.4935 10.1953 45.4883 10.1953Z" fill="white"/>
<path d="M0 30V0H28.2812V3.125H3.75V13.125H27.168V16.25H3.75V30H0Z" fill="white"/>
</svg>
