<svg width="272" height="64" viewBox="0 0 272 64" fill="none" xmlns="http://www.w3.org/2000/svg">
<path d="M40 50V46C40 43.8783 39.1571 41.8434 37.6569 40.3431C36.1566 38.8429 34.1217 38 32 38H16C13.8783 38 11.8434 38.8429 10.3431 40.3431C8.84285 41.8434 8 43.8783 8 46V50" stroke="white" stroke-width="3" stroke-linecap="round" stroke-linejoin="round"/>
<path d="M24 30C28.4183 30 32 26.4183 32 22C32 17.5817 28.4183 14 24 14C19.5817 14 16 17.5817 16 22C16 26.4183 19.5817 30 24 30Z" stroke="white" stroke-width="3" stroke-linecap="round" stroke-linejoin="round"/>
<path d="M94.6663 53V48.3333C94.6663 45.858 93.683 43.484 91.9327 41.7337C90.1823 39.9833 87.8084 39 85.333 39H66.6663C64.191 39 61.817 39.9833 60.0667 41.7337C58.3163 43.484 57.333 45.858 57.333 48.3333V53" stroke="white" stroke-width="3" stroke-linecap="round" stroke-linejoin="round"/>
<path d="M76.0003 29.6667C81.155 29.6667 85.3337 25.488 85.3337 20.3333C85.3337 15.1787 81.155 11 76.0003 11C70.8457 11 66.667 15.1787 66.667 20.3333C66.667 25.488 70.8457 29.6667 76.0003 29.6667Z" stroke="white" stroke-width="3" stroke-linecap="round" stroke-linejoin="round"/>
<path d="M157.334 56V50.6667C157.334 47.8377 156.21 45.1246 154.209 43.1242C152.209 41.1238 149.496 40 146.667 40H125.334C122.505 40 119.792 41.1238 117.791 43.1242C115.791 45.1246 114.667 47.8377 114.667 50.6667V56" stroke="white" stroke-width="3" stroke-linecap="round" stroke-linejoin="round"/>
<path d="M136 29.3333C141.891 29.3333 146.666 24.5577 146.666 18.6667C146.666 12.7756 141.891 8 136 8C130.109 8 125.333 12.7756 125.333 18.6667C125.333 24.5577 130.109 29.3333 136 29.3333Z" stroke="white" stroke-width="3" stroke-linecap="round" stroke-linejoin="round"/>
<path d="M214.666 53V48.3333C214.666 45.858 213.683 43.484 211.933 41.7337C210.182 39.9833 207.808 39 205.333 39H186.666C184.191 39 181.817 39.9833 180.067 41.7337C178.316 43.484 177.333 45.858 177.333 48.3333V53" stroke="white" stroke-width="3" stroke-linecap="round" stroke-linejoin="round"/>
<path d="M196 29.6667C201.155 29.6667 205.334 25.488 205.334 20.3333C205.334 15.1787 201.155 11 196 11C190.846 11 186.667 15.1787 186.667 20.3333C186.667 25.488 190.846 29.6667 196 29.6667Z" stroke="white" stroke-width="3" stroke-linecap="round" stroke-linejoin="round"/>
<path d="M264 50V46C264 43.8783 263.157 41.8434 261.657 40.3431C260.157 38.8429 258.122 38 256 38H240C237.878 38 235.843 38.8429 234.343 40.3431C232.843 41.8434 232 43.8783 232 46V50" stroke="white" stroke-width="3" stroke-linecap="round" stroke-linejoin="round"/>
<path d="M248 30C252.418 30 256 26.4183 256 22C256 17.5817 252.418 14 248 14C243.582 14 240 17.5817 240 22C240 26.4183 243.582 30 248 30Z" stroke="white" stroke-width="3" stroke-linecap="round" stroke-linejoin="round"/>
</svg>
