<svg width="232" height="64" viewBox="0 0 232 64" fill="none" xmlns="http://www.w3.org/2000/svg">
<path d="M40 50V46C40 43.8783 39.1571 41.8434 37.6569 40.3431C36.1566 38.8429 34.1217 38 32 38H16C13.8783 38 11.8434 38.8429 10.3431 40.3431C8.84285 41.8434 8 43.8783 8 46V50" stroke="white" stroke-width="3" stroke-linecap="round" stroke-linejoin="round"/>
<path d="M24 30C28.4183 30 32 26.4183 32 22C32 17.5817 28.4183 14 24 14C19.5817 14 16 17.5817 16 22C16 26.4183 19.5817 30 24 30Z" stroke="white" stroke-width="3" stroke-linecap="round" stroke-linejoin="round"/>
<path d="M101.334 56V50.6667C101.334 47.8377 100.21 45.1246 98.2095 43.1242C96.2091 41.1238 93.496 40 90.667 40H69.3337C66.5047 40 63.7916 41.1238 61.7912 43.1242C59.7908 45.1246 58.667 47.8377 58.667 50.6667V56" stroke="white" stroke-width="3" stroke-linecap="round" stroke-linejoin="round"/>
<path d="M79.9997 29.3333C85.8907 29.3333 90.6663 24.5577 90.6663 18.6667C90.6663 12.7756 85.8907 8 79.9997 8C74.1086 8 69.333 12.7756 69.333 18.6667C69.333 24.5577 74.1086 29.3333 79.9997 29.3333Z" stroke="white" stroke-width="3" stroke-linecap="round" stroke-linejoin="round"/>
<path d="M165.334 56V50.6667C165.334 47.8377 164.21 45.1246 162.209 43.1242C160.209 41.1238 157.496 40 154.667 40H133.334C130.505 40 127.792 41.1238 125.791 43.1242C123.791 45.1246 122.667 47.8377 122.667 50.6667V56" stroke="white" stroke-width="3" stroke-linecap="round" stroke-linejoin="round"/>
<path d="M144 29.3333C149.891 29.3333 154.666 24.5577 154.666 18.6667C154.666 12.7756 149.891 8 144 8C138.109 8 133.333 12.7756 133.333 18.6667C133.333 24.5577 138.109 29.3333 144 29.3333Z" stroke="white" stroke-width="3" stroke-linecap="round" stroke-linejoin="round"/>
<path d="M222.666 53V48.3333C222.666 45.858 221.683 43.484 219.933 41.7337C218.182 39.9833 215.808 39 213.333 39H194.666C192.191 39 189.817 39.9833 188.067 41.7337C186.316 43.484 185.333 45.858 185.333 48.3333V53" stroke="white" stroke-width="3" stroke-linecap="round" stroke-linejoin="round"/>
<path d="M204 29.6667C209.155 29.6667 213.334 25.488 213.334 20.3333C213.334 15.1787 209.155 11 204 11C198.846 11 194.667 15.1787 194.667 20.3333C194.667 25.488 198.846 29.6667 204 29.6667Z" stroke="white" stroke-width="3" stroke-linecap="round" stroke-linejoin="round"/>
</svg>
