<svg width="32" height="22" viewBox="0 0 32 22" fill="none" xmlns="http://www.w3.org/2000/svg">
<path d="M18.6017 8.65389C17.0983 11.3056 14.065 14.2072 10.1944 16.3056C4.59778 13.2711 0.75 8.55722 0.75 5.34555C0.75 2.45889 2.82 0.75 4.94778 0.75C7.51278 0.75 9.43667 3.46056 10.1944 5.69944C10.9522 3.46056 12.8761 0.75 15.4417 0.75C17.4433 0.75 19.3928 2.26167 19.6178 4.84389" stroke="white" stroke-width="1.5" stroke-miterlimit="10" stroke-linecap="round" stroke-linejoin="round"/>
<path d="M12.4169 12.1371C12.0547 11.3032 11.8613 10.5088 11.8613 9.78989C11.8613 6.90322 13.9313 5.19434 16.0591 5.19434C18.6247 5.19434 20.5486 7.90489 21.3058 10.1438C22.0641 7.90489 23.988 5.19434 26.553 5.19434C28.6808 5.19434 30.7502 6.90322 30.7502 9.78989C30.7502 13.001 26.9036 17.7149 21.3058 20.7499C18.5908 19.2782 16.288 17.4104 14.6358 15.5116" stroke="white" stroke-width="1.5" stroke-miterlimit="10" stroke-linecap="round" stroke-linejoin="round"/>
</svg>
