<svg width="112" height="64" viewBox="0 0 112 64" fill="none" xmlns="http://www.w3.org/2000/svg">
<path d="M46.6663 53V48.3333C46.6663 45.858 45.683 43.484 43.9327 41.7337C42.1823 39.9833 39.8084 39 37.333 39H18.6663C16.191 39 13.817 39.9833 12.0667 41.7337C10.3163 43.484 9.33301 45.858 9.33301 48.3333V53" stroke="white" stroke-width="3" stroke-linecap="round" stroke-linejoin="round"/>
<path d="M28.0003 29.6667C33.155 29.6667 37.3337 25.488 37.3337 20.3333C37.3337 15.1787 33.155 11 28.0003 11C22.8457 11 18.667 15.1787 18.667 20.3333C18.667 25.488 22.8457 29.6667 28.0003 29.6667Z" stroke="white" stroke-width="3" stroke-linecap="round" stroke-linejoin="round"/>
<path d="M102.666 53V48.3333C102.666 45.858 101.683 43.484 99.9327 41.7337C98.1823 39.9833 95.8084 39 93.333 39H74.6663C72.191 39 69.817 39.9833 68.0667 41.7337C66.3163 43.484 65.333 45.858 65.333 48.3333V53" stroke="white" stroke-width="3" stroke-linecap="round" stroke-linejoin="round"/>
<path d="M84.0003 29.6667C89.155 29.6667 93.3337 25.488 93.3337 20.3333C93.3337 15.1787 89.155 11 84.0003 11C78.8457 11 74.667 15.1787 74.667 20.3333C74.667 25.488 78.8457 29.6667 84.0003 29.6667Z" stroke="white" stroke-width="3" stroke-linecap="round" stroke-linejoin="round"/>
</svg>
