<svg width="176" height="64" viewBox="0 0 176 64" fill="none" xmlns="http://www.w3.org/2000/svg">
<path d="M46.6663 53V48.3333C46.6663 45.858 45.683 43.484 43.9327 41.7337C42.1823 39.9833 39.8084 39 37.333 39H18.6663C16.191 39 13.817 39.9833 12.0667 41.7337C10.3163 43.484 9.33301 45.858 9.33301 48.3333V53" stroke="white" stroke-width="3" stroke-linecap="round" stroke-linejoin="round"/>
<path d="M28.0003 29.6667C33.155 29.6667 37.3337 25.488 37.3337 20.3333C37.3337 15.1787 33.155 11 28.0003 11C22.8457 11 18.667 15.1787 18.667 20.3333C18.667 25.488 22.8457 29.6667 28.0003 29.6667Z" stroke="white" stroke-width="3" stroke-linecap="round" stroke-linejoin="round"/>
<path d="M109.334 56V50.6667C109.334 47.8377 108.21 45.1246 106.209 43.1242C104.209 41.1238 101.496 40 98.667 40H77.3337C74.5047 40 71.7916 41.1238 69.7912 43.1242C67.7908 45.1246 66.667 47.8377 66.667 50.6667V56" stroke="white" stroke-width="3" stroke-linecap="round" stroke-linejoin="round"/>
<path d="M87.9997 29.3333C93.8907 29.3333 98.6663 24.5577 98.6663 18.6667C98.6663 12.7756 93.8907 8 87.9997 8C82.1086 8 77.333 12.7756 77.333 18.6667C77.333 24.5577 82.1086 29.3333 87.9997 29.3333Z" stroke="white" stroke-width="3" stroke-linecap="round" stroke-linejoin="round"/>
<path d="M166.666 53V48.3333C166.666 45.858 165.683 43.484 163.933 41.7337C162.182 39.9833 159.808 39 157.333 39H138.666C136.191 39 133.817 39.9833 132.067 41.7337C130.316 43.484 129.333 45.858 129.333 48.3333V53" stroke="white" stroke-width="3" stroke-linecap="round" stroke-linejoin="round"/>
<path d="M148 29.6667C153.155 29.6667 157.334 25.488 157.334 20.3333C157.334 15.1787 153.155 11 148 11C142.846 11 138.667 15.1787 138.667 20.3333C138.667 25.488 142.846 29.6667 148 29.6667Z" stroke="white" stroke-width="3" stroke-linecap="round" stroke-linejoin="round"/>
</svg>
