<svg width="35" height="29" viewBox="0 0 35 29" fill="none" xmlns="http://www.w3.org/2000/svg">
<path d="M20.6894 12.9696C18.4493 15.0368 14.6758 16.8757 10.3498 17.6942C5.94452 13.0981 3.71689 7.43562 4.69594 4.37682C5.57593 1.62755 8.06834 0.631026 10.0948 1.27966C12.5378 2.06159 13.5438 5.22961 13.583 7.59294C14.9872 5.69162 17.6458 3.69657 20.0892 4.47866C21.9956 5.08885 23.3915 7.12284 22.8186 9.65075" stroke="white" stroke-width="1.5" stroke-miterlimit="10" stroke-linecap="round" stroke-linejoin="round"/>
<path d="M13.7371 14.4018C13.6463 13.4972 13.7043 12.6816 13.9235 11.9969C14.8035 9.24767 17.2959 8.25114 19.3224 8.89978C21.7658 9.68187 22.7718 12.8499 22.8105 15.2131C24.2153 13.3119 26.8739 11.3169 29.3168 12.0988C31.3433 12.7474 32.7933 15.0058 31.9133 17.7551C30.9344 20.8134 25.8339 24.1302 19.5773 25.3143C17.4402 23.0851 15.8164 20.6042 14.8217 18.292" stroke="white" stroke-width="1.5" stroke-miterlimit="10" stroke-linecap="round" stroke-linejoin="round"/>
</svg>
