<svg width="100" height="100" viewBox="0 0 100 100" fill="none" xmlns="http://www.w3.org/2000/svg">
<path d="M86.3441 47.2219L86.3125 47.1904C84.7617 45.6397 82.259 45.6397 80.7271 47.1904C79.1763 48.741 79.1763 51.2435 80.7271 52.7753L80.7586 52.8068C82.3094 54.3575 84.8122 54.3575 86.3441 52.8068C87.876 51.2561 87.8949 48.7536 86.3441 47.2219Z" fill="white"/>
<path d="M13.6876 52.8007C15.2384 54.3514 17.7411 54.3514 19.273 52.8007C20.8238 51.25 20.8238 48.7475 19.273 47.2158L19.2415 47.1843C17.6907 45.6336 15.1879 45.6336 13.656 47.1843C12.1241 48.7349 12.1052 51.2374 13.656 52.7692L13.6876 52.8007Z" fill="white"/>
<path d="M52.774 86.3371L52.8055 86.3056C54.3563 84.7549 54.3563 82.2524 52.8055 80.7206C51.2546 79.1699 48.7519 79.1699 47.22 80.7206L47.1885 80.7522C45.6377 82.3028 45.6377 84.8053 47.1885 86.3371C48.7393 87.8878 51.2421 87.8878 52.774 86.3371Z" fill="white"/>
<path d="M62.861 45.3823C60.3771 47.866 60.3771 51.9003 62.8925 54.4218C64.1344 55.6636 65.7671 56.275 67.3937 56.275C69.0265 56.275 70.6529 55.6635 71.895 54.4218C73.1054 53.2115 73.7674 51.6166 73.7674 49.9209C73.7674 48.2252 73.1054 46.6115 71.8635 45.3886C69.3796 42.905 65.3449 42.905 62.8612 45.3886L62.861 45.3823Z" fill="white"/>
<path d="M54.4053 62.8559C51.9214 60.3722 47.8867 60.3722 45.403 62.8559C42.919 65.3396 42.919 69.3739 45.4345 71.8953C46.6449 73.1056 48.2399 73.7676 49.9357 73.7676C51.6316 73.7676 53.2454 73.1057 54.437 71.8953C56.9209 69.4117 56.9207 65.3774 54.4053 62.8559Z" fill="white"/>
<path d="M28.1303 54.6097C29.3723 55.8515 31.005 56.4629 32.6316 56.4629C34.2643 56.4629 35.8908 55.8514 37.1328 54.6097C39.6167 52.126 39.6167 48.0917 37.1013 45.5703C34.6174 43.0866 30.5827 43.0866 28.099 45.5703C26.8886 46.7806 26.2266 48.3754 26.2266 50.0711C26.2266 51.7668 26.8885 53.3805 28.1304 54.6034L28.1303 54.6097Z" fill="white"/>
<path d="M68.1363 73.6531C71.0551 73.6531 73.4317 71.2829 73.4317 68.3582C73.4317 65.4396 71.0613 63.0632 68.1363 63.0632H68.0733C65.1544 63.0632 62.7778 65.4335 62.7778 68.3582C62.7778 71.2767 65.1483 73.6531 68.0733 73.6531H68.1363Z" fill="white"/>
<path d="M31.9258 63.0703H31.8628C28.944 63.0703 26.5674 65.4405 26.5674 68.3653C26.5674 71.2838 28.9378 73.6602 31.8628 73.6602H31.9258C34.8447 73.6602 37.2213 71.29 37.2213 68.3653C37.2213 65.4467 34.8508 63.0703 31.9258 63.0703Z" fill="white"/>
<path d="M49.9814 41.833C52.1626 41.833 54.2115 42.6903 55.7434 44.2221C58.9524 47.4116 58.9524 52.5805 55.775 55.7576C54.2242 57.3084 52.1943 58.1467 50.013 58.1467C47.8318 58.1467 45.7829 57.2894 44.251 55.7576C41.0421 52.5681 41.0421 47.3992 44.2194 44.2221C45.7702 42.6714 47.8001 41.833 49.9814 41.833Z" fill="white"/>
<path d="M52.8055 19.2409L52.774 19.2724C51.2421 20.8231 48.7393 20.8042 47.1885 19.2724C45.6377 17.7406 45.6377 15.2381 47.1885 13.6875L47.22 13.6559C48.7519 12.1052 51.2546 12.1242 52.8055 13.6559C54.3563 15.1877 54.3563 17.6902 52.8055 19.2409Z" fill="white"/>
<path d="M68.1363 26.3389H68.0733C65.1544 26.3389 62.7778 28.7091 62.7778 31.6338C62.7778 34.5524 65.1483 36.9288 68.0733 36.9288H68.1363C71.0551 36.9288 73.4317 34.5585 73.4317 31.6338C73.4317 28.7152 71.0613 26.3389 68.1363 26.3389Z" fill="white"/>
<path d="M45.5936 37.1361C46.8355 38.3779 48.4682 38.9893 50.0948 38.9893C51.7276 38.9893 53.354 38.3778 54.5961 37.1361C57.08 34.6524 57.08 30.6181 54.5645 28.0967C52.1626 25.695 47.9641 25.695 45.5622 28.0967C43.0783 30.5804 43.0781 34.6147 45.5936 37.1361Z" fill="white"/>
<path d="M31.9259 36.9217H31.8628C28.9378 36.9217 26.5674 34.5453 26.5674 31.6267C26.5674 28.702 28.944 26.3318 31.8628 26.3318H31.9259C34.8508 26.3318 37.2213 28.7081 37.2213 31.6267C37.2213 34.5514 34.8447 36.9217 31.9259 36.9217Z" fill="white"/>
</svg>
