<svg width="32" height="32" viewBox="0 0 32 32" fill="none" xmlns="http://www.w3.org/2000/svg">
<g clip-path="url(#clip0_944_27303)">
<path fill-rule="evenodd" clip-rule="evenodd" d="M12.2284 1.5621C13.2286 0.561903 14.5852 0 15.9997 0C17.4141 0 18.7707 0.561903 19.7709 1.5621C20.7711 2.56229 21.333 3.91885 21.333 5.33333V16C21.333 17.4145 20.7711 18.771 19.7709 19.7712C18.7707 20.7714 17.4141 21.3333 15.9997 21.3333C14.5852 21.3333 13.2286 20.7714 12.2284 19.7712C11.2282 18.771 10.6663 17.4145 10.6663 16V5.33333C10.6663 3.91885 11.2282 2.56229 12.2284 1.5621ZM15.9997 2.66667C15.2924 2.66667 14.6141 2.94762 14.114 3.44772C13.6139 3.94781 13.333 4.62609 13.333 5.33333V16C13.333 16.7072 13.6139 17.3855 14.114 17.8856C14.6141 18.3857 15.2924 18.6667 15.9997 18.6667C16.7069 18.6667 17.3852 18.3857 17.8853 17.8856C18.3854 17.3855 18.6663 16.7072 18.6663 16V5.33333C18.6663 4.62609 18.3854 3.94781 17.8853 3.44772C17.3852 2.94762 16.7069 2.66667 15.9997 2.66667ZM6.66634 12C7.40272 12 7.99967 12.597 7.99967 13.3333V16C7.99967 18.1217 8.84253 20.1566 10.3428 21.6569C11.8431 23.1571 13.8779 24 15.9997 24C18.1214 24 20.1562 23.1571 21.6565 21.6569C23.1568 20.1566 23.9997 18.1217 23.9997 16V13.3333C23.9997 12.597 24.5966 12 25.333 12C26.0694 12 26.6663 12.597 26.6663 13.3333V16C26.6663 18.829 25.5425 21.5421 23.5421 23.5425C21.8586 25.226 19.6703 26.2886 17.333 26.583L17.333 29.3334H21.333C22.0694 29.3334 22.6663 29.9303 22.6663 30.6667C22.6663 31.4031 22.0694 32 21.333 32H10.6663C9.92996 32 9.33301 31.4031 9.33301 30.6667C9.33301 29.9303 9.92996 29.3334 10.6663 29.3334H14.6663L14.6663 26.583C12.329 26.2886 10.1407 25.226 8.4572 23.5425C6.45681 21.5421 5.33301 18.829 5.33301 16V13.3333C5.33301 12.597 5.92996 12 6.66634 12Z" fill="white"/>
</g>
<defs>
<clipPath id="clip0_944_27303">
<rect width="32" height="32" fill="white"/>
</clipPath>
</defs>
</svg>
