<svg width="12" height="12" viewBox="0 0 12 12" fill="none" xmlns="http://www.w3.org/2000/svg">
<path fill-rule="evenodd" clip-rule="evenodd" d="M11.2652 0.734846C11.3772 0.846908 11.4068 1.01732 11.3389 1.16054L6.83891 10.6605C6.77111 10.8037 6.62068 10.8888 6.46306 10.8732C6.30544 10.8576 6.17462 10.7446 6.13621 10.591L5.19078 6.80924L1.40906 5.86381C1.2554 5.8254 1.14244 5.69458 1.12683 5.53696C1.11123 5.37934 1.19633 5.22891 1.33948 5.16111L10.8395 0.661109C10.9827 0.593266 11.1531 0.622783 11.2652 0.734846ZM2.60751 5.39035L5.59096 6.13621C5.72532 6.1698 5.83022 6.2747 5.86381 6.40906L6.60967 9.3925L10.2116 1.7884L2.60751 5.39035Z" fill="white"/>
</svg>
