<svg width="16" height="16" viewBox="0 0 16 16" fill="none" xmlns="http://www.w3.org/2000/svg">
<g clip-path="url(#clip0_944_9012)">
<path d="M13.3334 15.266C13.2667 15.266 13.2001 15.266 13.1334 15.266C11.0001 14.9993 8.86673 14.266 7.06673 13.1327C5.40006 12.066 3.9334 10.5993 2.86673 8.93268C1.66673 7.13268 0.933398 4.99935 0.733398 2.86602C0.733398 2.33268 0.866732 1.79935 1.20007 1.39935C1.5334 0.999349 2.00006 0.732682 2.5334 0.666016C2.60006 0.666016 2.66673 0.666016 2.7334 0.666016H4.7334C5.7334 0.666016 6.60006 1.39935 6.7334 2.39935C6.80006 2.99935 6.9334 3.59935 7.1334 4.13268C7.40006 4.86602 7.20006 5.66602 6.66673 6.26602L6.20006 6.73268C7.00006 7.93268 8.00006 8.99935 9.26673 9.79935L9.7334 9.33268C10.2667 8.79935 11.1334 8.59935 11.8667 8.86602C12.4001 9.06602 13.0001 9.19935 13.6001 9.26602C14.6001 9.39935 15.3334 10.266 15.3334 11.266V13.266C15.3334 13.7993 15.1334 14.3327 14.7334 14.666C14.3334 14.9993 13.8667 15.266 13.3334 15.266ZM4.7334 1.99935H2.7334C2.5334 1.99935 2.3334 2.13268 2.20006 2.26602C2.1334 2.39935 2.06673 2.53268 2.06673 2.73268C2.26673 4.66602 2.9334 6.53268 4.00007 8.19935C5.00006 9.73268 6.26673 11.066 7.80006 11.9993C9.46673 13.066 11.3334 13.7327 13.2667 13.9327C13.5334 13.9327 13.6667 13.866 13.8001 13.7327C13.9334 13.5993 14.0001 13.466 14.0001 13.266V11.266C14.0001 10.9327 13.7334 10.666 13.4001 10.5993C12.7334 10.5327 12.0667 10.3327 11.4001 10.066C11.1334 9.99935 10.8667 9.99935 10.6667 10.1993L9.80006 11.066C9.60006 11.266 9.26673 11.3327 9.00006 11.1993C7.20006 10.1993 5.7334 8.73268 4.7334 6.93268C4.66673 6.66602 4.7334 6.33268 4.9334 6.13268L5.80006 5.26602C5.9334 5.13268 6.00006 4.79935 5.9334 4.59935C5.66673 3.93268 5.5334 3.26602 5.40006 2.59935C5.40006 2.26602 5.06673 1.99935 4.7334 1.99935Z" fill="white"/>
</g>
<defs>
<clipPath id="clip0_944_9012">
<rect width="16" height="16" fill="white"/>
</clipPath>
</defs>
</svg>
