<svg width="16" height="16" viewBox="0 0 16 16" fill="none" xmlns="http://www.w3.org/2000/svg">
<g clip-path="url(#clip0_944_3319)">
<path fill-rule="evenodd" clip-rule="evenodd" d="M6.1513 1.59651C7.2331 1.2836 8.37655 1.24983 9.47493 1.49835C10.5733 1.74687 11.5908 2.26959 12.4326 3.01773C13.2743 3.76586 13.9128 4.71504 14.2885 5.77668C14.4113 6.12377 14.2295 6.50472 13.8824 6.62755C13.5353 6.75038 13.1543 6.56857 13.0315 6.22147C12.731 5.37216 12.2202 4.61282 11.5468 4.01431C10.8734 3.4158 10.0594 2.99763 9.18069 2.79881C8.30198 2.59999 7.38722 2.62701 6.52178 2.87734C5.65634 3.12767 4.86841 3.59315 4.23152 4.23036C4.2266 4.23529 4.22159 4.24014 4.21652 4.24491L2.3497 5.99907H4.66667C5.03486 5.99907 5.33333 6.29755 5.33333 6.66574C5.33333 7.03393 5.03486 7.33241 4.66667 7.33241H0.666667C0.298477 7.33241 0 7.03393 0 6.66574V2.66574C0 2.29755 0.298477 1.99907 0.666667 1.99907C1.03486 1.99907 1.33333 2.29755 1.33333 2.66574V5.1245L3.29607 3.28021C4.09084 2.48759 5.07293 1.90843 6.1513 1.59651ZM10.6667 9.33243C10.6667 8.96424 10.9652 8.66576 11.3334 8.66576H15.3334C15.7015 8.66576 16 8.96424 16 9.33243V13.3324C16 13.7006 15.7015 13.9991 15.3334 13.9991C14.9652 13.9991 14.6667 13.7006 14.6667 13.3324V10.8737L12.7039 12.7179C11.9092 13.5106 10.9271 14.0897 9.8487 14.4016C8.7669 14.7146 7.62345 14.7483 6.52507 14.4998C5.42668 14.2513 4.40915 13.7286 3.56742 12.9804C2.7257 12.2323 2.0872 11.2831 1.71152 10.2215C1.5887 9.87437 1.7705 9.49342 2.1176 9.3706C2.4647 9.24777 2.84565 9.42958 2.96848 9.77668C3.26902 10.626 3.77982 11.3853 4.4532 11.9838C5.12658 12.5823 5.94061 13.0005 6.81931 13.1993C7.69802 13.3982 8.61278 13.3711 9.47822 13.1208C10.3437 12.8705 11.1316 12.405 11.7685 11.7678C11.7734 11.7629 11.7784 11.758 11.7835 11.7532L13.6503 9.9991H11.3334C10.9652 9.9991 10.6667 9.70062 10.6667 9.33243Z" fill="white"/>
</g>
<defs>
<clipPath id="clip0_944_3319">
<rect width="16" height="16" fill="white"/>
</clipPath>
</defs>
</svg>
