<svg width="16" height="16" viewBox="0 0 16 16" fill="none" xmlns="http://www.w3.org/2000/svg">
<path fill-rule="evenodd" clip-rule="evenodd" d="M7.07024 1.40487C8.50152 1.2035 9.95947 1.47274 11.2244 2.17202C12.4894 2.8713 13.4928 3.96274 14.0835 5.2819C14.6742 6.60105 14.8202 8.07645 14.4995 9.48579C14.1788 10.8951 13.4088 12.1621 12.3054 13.0957C11.202 14.0294 9.8251 14.5791 8.38212 14.6622C6.93913 14.7452 5.50824 14.3571 4.30504 13.5562C3.10184 12.7553 2.19151 11.5851 1.71122 10.2218C1.58887 9.87455 1.7712 9.49386 2.11847 9.37151C2.46574 9.24916 2.84644 9.43149 2.96878 9.77876C3.35302 10.8694 4.08128 11.8055 5.04384 12.4462C6.0064 13.087 7.15111 13.3975 8.3055 13.331C9.45989 13.2646 10.5614 12.8248 11.4441 12.0779C12.3268 11.331 12.9429 10.3174 13.1994 9.18994C13.456 8.06246 13.3392 6.88214 12.8666 5.82682C12.3941 4.7715 11.5913 3.89834 10.5794 3.33892C9.56739 2.77949 8.40102 2.5641 7.256 2.7252C6.11098 2.8863 5.04932 3.41516 4.23101 4.2321C4.22625 4.23685 4.22142 4.24152 4.21652 4.24613L2.34971 6.00027H4.66667C5.03486 6.00027 5.33333 6.29875 5.33333 6.66694C5.33333 7.03513 5.03486 7.3336 4.66667 7.3336H0.666667C0.298477 7.3336 0 7.03513 0 6.66694V2.66694C0 2.29875 0.298477 2.00027 0.666667 2.00027C1.03486 2.00027 1.33333 2.29875 1.33333 2.66694V5.1257L3.29633 3.28118C4.31823 2.26417 5.64238 1.60576 7.07024 1.40487Z" fill="white"/>
</svg>
