<svg width="48" height="48" viewBox="0 0 48 48" fill="none" xmlns="http://www.w3.org/2000/svg">
<path fill-rule="evenodd" clip-rule="evenodd" d="M9.93624 12.7646C7.47296 15.8439 6 19.75 6 24C6 33.9411 14.0589 42 24 42C28.25 42 32.1561 40.527 35.2354 38.0638L9.93624 12.7646ZM12.7647 9.93617L38.0638 35.2353C40.5271 32.156 42 28.25 42 24C42 14.0589 33.9411 6 24 6C19.75 6 15.844 7.47293 12.7647 9.93617ZM2 24C2 11.8497 11.8497 2 24 2C36.1503 2 46 11.8497 46 24C46 36.1503 36.1503 46 24 46C11.8497 46 2 36.1503 2 24Z" fill="white"/>
</svg>
