<svg width="16" height="16" viewBox="0 0 16 16" fill="none" xmlns="http://www.w3.org/2000/svg">
<g clip-path="url(#clip0_944_8072)">
<path fill-rule="evenodd" clip-rule="evenodd" d="M2.66667 1.33301C3.03486 1.33301 3.33333 1.63148 3.33333 1.99967V6.66634C3.33333 7.03453 3.03486 7.33301 2.66667 7.33301C2.29848 7.33301 2 7.03453 2 6.66634V1.99967C2 1.63148 2.29848 1.33301 2.66667 1.33301ZM8.00001 1.33301C8.3682 1.33301 8.66668 1.63148 8.66668 1.99967V4.66635H10C10.3682 4.66635 10.6667 4.96483 10.6667 5.33302C10.6667 5.70121 10.3682 5.99969 10 5.99969H6.00001C5.63182 5.99969 5.33334 5.70121 5.33334 5.33302C5.33334 4.96483 5.63182 4.66635 6.00001 4.66635H7.33334V1.99967C7.33334 1.63148 7.63182 1.33301 8.00001 1.33301ZM13.3334 1.33301C13.7015 1.33301 14 1.63148 14 1.99967V7.99967C14 8.36786 13.7015 8.66634 13.3334 8.66634C12.9652 8.66634 12.6667 8.36786 12.6667 7.99967V1.99967C12.6667 1.63148 12.9652 1.33301 13.3334 1.33301ZM8.00001 7.33301C8.3682 7.33301 8.66668 7.63148 8.66668 7.99967V13.9997C8.66668 14.3679 8.3682 14.6663 8.00001 14.6663C7.63182 14.6663 7.33334 14.3679 7.33334 13.9997V7.99967C7.33334 7.63148 7.63182 7.33301 8.00001 7.33301ZM0 9.33302C0 8.96483 0.298477 8.66635 0.666667 8.66635H4.66667C5.03486 8.66635 5.33333 8.96483 5.33333 9.33302C5.33333 9.70121 5.03486 9.99969 4.66667 9.99969H3.33333V13.9997C3.33333 14.3679 3.03486 14.6664 2.66667 14.6664C2.29848 14.6664 2 14.3679 2 13.9997V9.99969H0.666667C0.298477 9.99969 0 9.70121 0 9.33302ZM10.6667 10.6663C10.6667 10.2981 10.9652 9.99966 11.3334 9.99966H15.3334C15.7015 9.99966 16 10.2981 16 10.6663C16 11.0345 15.7015 11.333 15.3334 11.333H14V13.9997C14 14.3679 13.7015 14.6663 13.3334 14.6663C12.9652 14.6663 12.6667 14.3679 12.6667 13.9997V11.333H11.3334C10.9652 11.333 10.6667 11.0345 10.6667 10.6663Z" fill="white"/>
</g>
<defs>
<clipPath id="clip0_944_8072">
<rect width="16" height="16" fill="white"/>
</clipPath>
</defs>
</svg>
