<svg width="24" height="24" viewBox="0 0 24 24" fill="none" xmlns="http://www.w3.org/2000/svg">
<g clip-path="url(#clip0_5_2714)">
<path fill-rule="evenodd" clip-rule="evenodd" d="M0.469655 0.46967C0.762548 0.176777 1.23742 0.176777 1.53031 0.46967L10.4074 9.34679C10.4074 9.34674 10.4075 9.34683 10.4074 9.34679C10.409 9.34839 10.4108 9.35013 10.4124 9.35175C10.4124 9.3517 10.4124 9.35179 10.4124 9.35175L14.6481 13.5875C14.6481 13.5874 14.6482 13.5875 14.6481 13.5875C14.6497 13.589 14.6515 13.5908 14.653 13.5924C14.653 13.5923 14.6531 13.5925 14.653 13.5924L23.5303 22.4697C23.8232 22.7626 23.8232 23.2374 23.5303 23.5303C23.2374 23.8232 22.7625 23.8232 22.4697 23.5303L17.8589 18.9196C16.131 20.0777 14.1014 20.7157 12.0122 20.7499L12 20.7501C8.20035 20.7501 5.26585 18.5802 3.32783 16.513C2.35199 15.4721 1.60622 14.434 1.10433 13.6569C0.852919 13.2676 0.661477 12.9419 0.53185 12.7114C0.467008 12.5962 0.417549 12.5046 0.383708 12.4406C0.366784 12.4087 0.353759 12.3836 0.34466 12.3659L0.333959 12.3449L0.330822 12.3387L0.329808 12.3367C0.329663 12.3364 0.329164 12.3354 0.999985 12L0.329164 12.3354C0.220181 12.1174 0.223893 11.8601 0.339118 11.6454C1.49867 9.48444 3.06018 7.56802 4.93708 5.99775L0.469655 1.53033C0.176762 1.23744 0.176762 0.762563 0.469655 0.46967ZM6.00228 7.06296C4.32934 8.44129 2.92319 10.1157 1.85456 12.0033C1.97089 12.2089 2.14144 12.4979 2.36439 12.8431C2.83125 13.566 3.52298 14.5279 4.42214 15.487C6.23298 17.4186 8.79637 19.2477 11.9939 19.25C13.6916 19.2211 15.3435 18.7292 16.7744 17.8351L14.0819 15.1426C13.8843 15.2815 13.6732 15.4014 13.4514 15.5002C12.9914 15.7052 12.4948 15.8154 11.9913 15.8243C11.4878 15.8331 10.9876 15.7405 10.5207 15.5519C10.0538 15.3633 9.62959 15.0826 9.2735 14.7265C8.91741 14.3704 8.63668 13.9462 8.44808 13.4793C8.25947 13.0123 8.16685 12.5122 8.17573 12.0087C8.18462 11.5052 8.29483 11.0086 8.49979 10.5486C8.59861 10.3268 8.71848 10.1157 8.85742 9.9181L6.00228 7.06296ZM9.94526 11.0059C9.91827 11.0559 9.89313 11.107 9.86993 11.1591C9.74696 11.4351 9.68083 11.733 9.6755 12.0351C9.67017 12.3372 9.72575 12.6373 9.83891 12.9175C9.95207 13.1977 10.1205 13.4522 10.3342 13.6658C10.5478 13.8795 10.8023 14.0479 11.0825 14.1611C11.3626 14.2742 11.6627 14.3298 11.9648 14.3245C12.267 14.3192 12.5649 14.253 12.8409 14.1301C12.893 14.1069 12.944 14.0817 12.994 14.0547L9.94526 11.0059ZM11.9982 4.75C11.3494 4.74847 10.7026 4.82239 10.0709 4.97026C9.66761 5.06467 9.26413 4.81425 9.16972 4.41093C9.07532 4.00762 9.32574 3.60414 9.72905 3.50974C10.4737 3.33544 11.2361 3.24827 12.0008 3.25C15.8001 3.25032 18.7343 5.41998 20.6721 7.48704C21.648 8.52795 22.3937 9.56598 22.8956 10.3431C23.1471 10.7324 23.3385 11.0581 23.4681 11.2886C23.533 11.4038 23.5824 11.4954 23.6163 11.5594C23.6332 11.5913 23.6462 11.6164 23.6553 11.6341L23.666 11.6551L23.6691 11.6613L23.6702 11.6633C23.6703 11.6636 23.6708 11.6646 23 12L22.3386 11.6464C22.2756 11.7642 22.2114 11.8812 22.1458 11.9974C22.0295 11.7917 21.8588 11.5025 21.6356 11.1569C21.1687 10.434 20.477 9.47205 19.5778 8.51296C17.7658 6.58017 15.2004 4.75 12 4.75L11.9982 4.75ZM22.1458 11.9974C21.6048 12.9568 20.9756 13.864 20.2661 14.7071C19.9994 15.0241 20.0402 15.4972 20.3571 15.7639C20.674 16.0306 21.1472 15.9898 21.4139 15.6729C22.2765 14.6477 23.0298 13.5352 23.6614 12.3536C23.7761 12.139 23.7796 11.8822 23.6708 11.6646L23 12C22.3292 12.3354 22.3293 12.3356 22.3293 12.3358L22.3281 12.3333L22.3213 12.32C22.3148 12.3074 22.3045 12.2876 22.2904 12.2609C22.2623 12.2077 22.219 12.1274 22.1608 12.0239C22.1559 12.0153 22.1509 12.0064 22.1458 11.9974Z" fill="white"/>
</g>
<defs>
<clipPath id="clip0_5_2714">
<rect width="24" height="24" fill="white"/>
</clipPath>
</defs>
</svg>
