<svg width="45" height="48" viewBox="0 0 45 48" fill="none" xmlns="http://www.w3.org/2000/svg">
<path fill-rule="evenodd" clip-rule="evenodd" d="M23.9707 10.848C28.0676 10.8481 31.4008 14.1816 31.4008 18.2724C31.4008 20.3974 30.4999 22.3148 29.0628 23.6694C32.1143 25.075 34.2361 28.1588 34.2361 31.7308V35.7303C34.236 36.5129 33.5972 37.1513 32.8139 37.1513H15.1268C14.3436 37.1513 13.7048 36.5128 13.7047 35.7303V31.7308C13.7047 28.1574 15.8272 25.0748 18.8773 23.6694C17.4402 22.3144 16.5407 20.3962 16.5406 18.2724C16.5406 14.1786 19.8767 10.848 23.9707 10.848ZM22.5847 25.6996C19.2571 25.6996 16.549 28.4057 16.549 31.7308V34.3092H31.3925V31.7308C31.3925 28.4057 28.6843 25.6996 25.3568 25.6996H22.5847ZM23.9707 13.6873C21.4403 13.6873 19.3849 15.7467 19.3849 18.2697C19.385 20.7926 21.4404 22.852 23.9707 22.852C26.501 22.8519 28.5565 20.798 28.5566 18.2697C28.5566 15.7412 26.5011 13.6874 23.9707 13.6873Z" fill="white"/>
<path fill-rule="evenodd" clip-rule="evenodd" d="M36.395 0C41.139 0 44.9998 3.85777 45 8.59846V39.4015C45 44.1421 41.1394 48 36.395 48L36.3922 47.9917H11.5465C6.80257 47.9915 2.94163 44.1338 2.94148 39.3932V37.1506H1.42213C0.638823 37.1506 0 36.5122 0 35.7296C0 34.9468 0.638851 34.3085 1.42213 34.3085H2.94218L2.94287 25.4186H1.42213C0.638823 25.4186 0 24.7803 0 23.9976C0 23.2149 0.638851 22.5765 1.42213 22.5765H2.94287L2.94357 13.6866H1.42213C0.638823 13.6866 7.37425e-07 13.0483 0 12.2656C0 11.4829 0.638851 10.8445 1.42213 10.8445H2.94426V8.59846C2.94443 3.85816 6.80508 0.000168374 11.5493 0H36.395ZM11.5493 2.84557C8.37171 2.84557 5.7879 5.42402 5.78784 8.60193V10.8445H7.30233C8.08563 10.8445 8.72446 11.4829 8.72446 12.2656C8.72446 13.0483 8.0856 13.6866 7.30233 13.6866H5.78784V22.5765H7.30233C8.08563 22.5765 8.72446 23.2149 8.72446 23.9976C8.72446 24.7802 8.0856 25.4186 7.30233 25.4186H5.78784V34.3085H7.30233C8.08563 34.3085 8.72446 34.9469 8.72446 35.7296C8.72446 36.5123 8.0856 37.1506 7.30233 37.1506H5.78784V39.405C5.78798 42.5801 8.36899 45.1614 11.5493 45.1614H36.3943C39.5718 45.1614 42.1549 42.5828 42.155 39.405L42.1523 8.59985C42.1522 5.42469 39.5719 2.84349 36.3915 2.84349H11.5465L11.5493 2.84557Z" fill="white"/>
</svg>
