<svg width="40" height="56" viewBox="0 0 40 56" fill="none" xmlns="http://www.w3.org/2000/svg">
<path d="M36.7998 25.1591H35.1996V15.4206C35.1996 6.91874 28.3801 0 20.0001 0C11.6201 0 4.8005 6.91874 4.8005 15.4206V25.1591H3.20034C1.43595 25.1591 0 26.616 0 28.406V52.7531C0 54.5432 1.43601 56 3.20034 56H36.7997C38.564 56 40 54.5431 40 52.7531V28.406C40 26.616 38.5641 25.1591 36.7998 25.1591ZM29.7565 43.5965C28.9887 45.851 27.4024 47.6668 25.2889 48.7108C24.0541 49.3208 22.7429 49.6094 21.4526 49.6094C18.1875 49.6094 15.0474 47.7607 13.5254 44.5888L13.1601 45.3114C12.8757 45.8721 12.316 46.1935 11.7357 46.1935C11.4906 46.1935 11.2408 46.1349 11.0049 46.0129C10.221 45.6023 9.91115 44.624 10.3135 43.8264L12.1403 40.2159C12.4663 39.573 13.167 39.2259 13.8677 39.3642L17.7941 40.1337C18.6613 40.3026 19.2301 41.1542 19.0613 42.034C18.8948 42.9137 18.0508 43.4886 17.1882 43.3196L16.402 43.1648C17.7525 45.98 21.1124 47.1577 23.8876 45.7877C26.6648 44.4176 27.8233 41.0111 26.4728 38.1933C25.1224 35.3754 21.7648 34.2003 18.9873 35.5704C18.1942 35.9622 17.2368 35.6267 16.8483 34.822C16.4622 34.0149 16.7928 33.0437 17.586 32.6519C19.6995 31.6079 22.0859 31.4624 24.3079 32.2413C26.5298 33.0202 28.3199 34.6296 29.3489 36.7739C30.3802 38.9182 30.5236 41.3417 29.7559 43.5959L29.7565 43.5965ZM30.3993 25.1591H9.60142V15.4206C9.60142 9.60246 14.2655 4.87075 20.0001 4.87075C25.7346 4.87075 30.3987 9.6027 30.3987 15.4206L30.3993 25.1591Z" fill="white"/>
</svg>
