<svg width="64" height="41" viewBox="0 0 64 41" fill="none" xmlns="http://www.w3.org/2000/svg">
<path fill-rule="evenodd" clip-rule="evenodd" d="M32.0004 0.154595C34.7947 0.154595 37.3658 1.13767 39.3965 2.78075C46.6057 -3.56422 57.954 1.63474 57.954 11.4517C57.954 14.5244 56.7662 17.3135 54.8317 19.3698C59.9712 21.6729 64 26.3467 64 32.1608C64 35.2083 63.2477 38.6575 59.0893 38.6575H49.612C48.9037 40.045 47.6637 41 45.4618 41H18.5382C16.3391 41 15.0963 40.0478 14.388 38.6575H4.91072C0.752316 38.6575 0 35.2083 0 32.1608C0 26.3354 4.0372 21.6671 9.16831 19.3698C2.34506 12.1089 7.41839 0.00596806 17.2784 0.00596806C20.0011 0.00596806 22.5832 1.00587 24.6033 2.78384C26.6343 1.13508 29.2054 0.154882 31.9995 0.154882L32.0004 0.154595ZM13.6609 35.548C13.3495 30.0934 15.6175 25.7288 19.9275 22.5715C17.2406 23.2399 14.427 22.8636 12.0297 21.5687C7.27327 23.1023 3.04905 27.0121 3.04905 32.1602C3.04905 33.7837 3.04629 35.5504 4.91192 35.5504L13.6609 35.548ZM12.9499 18.5297C14.3995 19.3133 15.4136 19.7908 17.2792 19.7908C18.9023 19.7908 20.4235 19.3246 21.7435 18.4483C19.2992 14.2267 19.5995 8.90944 22.4793 5.00576C17.18 0.573508 9.09438 4.38783 9.09438 11.4518C9.09438 14.3982 10.602 17.0354 12.9499 18.5297ZM51.971 21.5716C49.5763 22.8665 46.7599 23.24 44.0732 22.5715C48.3832 25.7286 50.6512 30.0963 50.3398 35.5481H59.0891C60.9547 35.5481 60.9519 33.7814 60.9519 32.1579C60.9519 27.0151 56.7271 23.1025 51.971 21.5716ZM50.9018 18.6224C53.3186 16.9315 54.9059 14.7969 54.9059 11.4488C54.9059 4.38479 46.8205 0.56754 41.521 5.00274C44.4007 8.90692 44.7039 14.2237 42.2568 18.4452C44.8582 20.1754 48.2286 20.2431 50.9018 18.6224ZM37.9112 22.8215C34.2598 24.9562 29.7433 24.9562 26.0889 22.8215C21.0679 24.5264 16.6751 28.6946 16.6751 34.1579C16.6751 36.1296 16.6172 37.8907 18.538 37.8907H45.4616C47.3824 37.8907 47.3245 36.1296 47.3245 34.1579C47.3245 28.6948 42.9324 24.5263 37.9112 22.8215ZM38.264 5.90456C32.7001 0.233688 23.1429 4.26989 23.1429 12.2889C23.1429 20.3076 32.6999 24.3443 38.264 18.6732C41.7224 15.1454 41.7224 9.43002 38.264 5.90456Z" fill="white"/>
</svg>
