<svg width="10" height="12" viewBox="0 0 10 12" fill="none" xmlns="http://www.w3.org/2000/svg">
<path fill-rule="evenodd" clip-rule="evenodd" d="M4.875 0.75C3.78098 0.75 2.73177 1.1846 1.95818 1.95818C1.1846 2.73177 0.75 3.78098 0.75 4.875C0.75 6.47427 1.78715 8.00784 2.89723 9.17959C3.4446 9.75738 3.99325 10.23 4.40547 10.5582C4.59662 10.7104 4.75778 10.8311 4.875 10.9163C4.99222 10.8311 5.15338 10.7104 5.34453 10.5582C5.75675 10.23 6.3054 9.75738 6.85277 9.17959C7.96285 8.00784 9 6.47427 9 4.875C9 3.78098 8.5654 2.73177 7.79182 1.95818C7.01823 1.1846 5.96902 0.75 4.875 0.75ZM4.875 11.375C4.66699 11.687 4.66689 11.687 4.66677 11.6869L4.66551 11.686L4.6624 11.6839L4.65139 11.6765C4.64196 11.6701 4.62839 11.6608 4.61095 11.6487C4.57607 11.6246 4.52571 11.5892 4.46208 11.5433C4.33485 11.4514 4.15434 11.317 3.93828 11.1449C3.50675 10.8013 2.9304 10.3051 2.35277 9.6954C1.21285 8.49216 0 6.77573 0 4.875C2.98023e-08 3.58207 0.513615 2.34209 1.42785 1.42785C2.34209 0.513614 3.58207 0 4.875 0C6.16793 0 7.40791 0.513614 8.32215 1.42785C9.23639 2.34209 9.75 3.58207 9.75 4.875C9.75 6.77573 8.53715 8.49216 7.39723 9.6954C6.8196 10.3051 6.24325 10.8013 5.81172 11.1449C5.59566 11.317 5.41515 11.4514 5.28792 11.5433C5.22429 11.5892 5.17393 11.6246 5.13905 11.6487C5.12161 11.6608 5.10804 11.6701 5.09861 11.6765L5.0876 11.6839L5.08449 11.686L5.08355 11.6867C5.08343 11.6867 5.08301 11.687 4.875 11.375ZM4.875 11.375L5.08301 11.687C4.95705 11.771 4.79273 11.7709 4.66677 11.6869L4.875 11.375ZM4.875 3.75C4.25368 3.75 3.75 4.25368 3.75 4.875C3.75 5.49632 4.25368 6 4.875 6C5.49632 6 6 5.49632 6 4.875C6 4.25368 5.49632 3.75 4.875 3.75ZM3 4.875C3 3.83947 3.83947 3 4.875 3C5.91053 3 6.75 3.83947 6.75 4.875C6.75 5.91053 5.91053 6.75 4.875 6.75C3.83947 6.75 3 5.91053 3 4.875Z" fill="white"/>
</svg>
