<svg width="35" height="48" viewBox="0 0 35 48" fill="none" xmlns="http://www.w3.org/2000/svg">
<path d="M29.4157 18.9393C28.7939 18.2904 27.6519 18.2925 27.0423 18.9474L18.654 27.3762L15.6791 24.3253C14.7077 23.2575 12.761 24.0263 12.8017 25.4806C12.7936 25.9281 12.9643 26.3511 13.2732 26.6765L17.3372 30.842C17.6786 31.1918 18.1419 31.3871 18.6296 31.3952C19.1194 31.3972 19.5786 31.202 19.9301 30.8583L29.4155 21.3153C30.0678 20.6909 30.0619 19.5657 29.4157 18.9393Z" fill="white"/>
<path d="M21.3525 11.2592C13.8257 11.2592 7.7055 17.3855 7.7055 24.9188C8.45735 43.0509 34.2519 43.0447 35 24.9188C35 17.385 28.8793 11.2592 21.353 11.2592H21.3525ZM21.3525 35.8208C15.3478 35.8208 10.4688 30.9292 10.4688 24.9188C11.0682 10.4678 31.6385 10.4719 32.2362 24.9188C32.2362 30.929 27.3572 35.8208 21.3525 35.8208Z" fill="white"/>
<path d="M21.3526 40.2145C12.9316 40.2145 6.08002 33.3561 6.08002 24.9195C5.89917 14.0139 17.8434 6.3156 27.6601 11.0075V4.1329C27.6601 1.85493 25.815 0 23.5391 0H4.12099C1.84511 0 0 1.85493 0 4.1329V43.8671C0 46.1451 1.84511 48 4.12099 48H23.5391C25.815 48 27.6601 46.1451 27.6601 43.8671V38.8393C25.6829 39.7505 23.594 40.2064 21.3526 40.2145ZM17.2723 4.59683H10.3879C9.32109 4.58056 9.31703 2.98595 10.3879 2.9697H17.2723C18.3391 2.98597 18.3432 4.58059 17.2723 4.59683Z" fill="white"/>
</svg>
