<svg width="16" height="16" viewBox="0 0 16 16" fill="none" xmlns="http://www.w3.org/2000/svg">
<path fill-rule="evenodd" clip-rule="evenodd" d="M7.21965 0.219671C7.51255 -0.0732227 7.98742 -0.0732239 8.28031 0.219669L15.2803 7.21965C15.421 7.36031 15.5 7.55107 15.5 7.74998C15.5 7.9489 15.421 8.13966 15.2803 8.28031L8.28031 15.2803C7.98742 15.5732 7.51255 15.5732 7.21965 15.2803C6.92676 14.9874 6.92676 14.5126 7.21965 14.2197L12.9393 8.49998H0.75C0.335786 8.49998 0 8.1642 0 7.74998C0 7.33577 0.335786 6.99998 0.75 6.99998H12.9393L7.21966 1.28033C6.92676 0.987439 6.92676 0.512565 7.21965 0.219671Z" fill="white"/>
</svg>
