<svg width="40" height="48" viewBox="0 0 40 48" fill="none" xmlns="http://www.w3.org/2000/svg">
<path fill-rule="evenodd" clip-rule="evenodd" d="M12 10.4V8C12 3.58172 15.5818 0 20 0C24.4182 0 28 3.58172 28 8V10.4H28.8C30.5673 10.4 32 11.8327 32 13.6V24.8C32 26.5673 30.5673 28 28.8 28H11.2C9.43272 28 8 26.5673 8 24.8V13.6C8 11.8327 9.43272 10.4 11.2 10.4H12ZM15.2 10.4H24.8V8C24.8 5.34903 22.651 3.2 20 3.2C17.349 3.2 15.2 5.34903 15.2 8V10.4Z" fill="white"/>
<path fill-rule="evenodd" clip-rule="evenodd" d="M40 39.2C40 44.0601 36.0601 48 31.2 48H8.8C3.93992 48 0 44.0601 0 39.2C0 34.3399 3.93992 30.4 8.8 30.4H31.2C36.0601 30.4 40 34.3399 40 39.2ZM12 40.8C12.8837 40.8 13.6 40.0837 13.6 39.2C13.6 38.3163 12.8837 37.6 12 37.6C11.1163 37.6 10.4 38.3163 10.4 39.2C10.4 40.0837 11.1163 40.8 12 40.8ZM21.6 39.2C21.6 40.0837 20.8837 40.8 20 40.8C19.1163 40.8 18.4 40.0837 18.4 39.2C18.4 38.3163 19.1163 37.6 20 37.6C20.8837 37.6 21.6 38.3163 21.6 39.2ZM28 40.8C28.8837 40.8 29.6 40.0837 29.6 39.2C29.6 38.3163 28.8837 37.6 28 37.6C27.1163 37.6 26.4 38.3163 26.4 39.2C26.4 40.0837 27.1163 40.8 28 40.8Z" fill="white"/>
</svg>
