<svg width="24" height="24" viewBox="0 0 24 24" fill="none" xmlns="http://www.w3.org/2000/svg">
<path d="M10.9556 2.78422C11.423 1.98578 12.577 1.98578 13.0444 2.78422C13.4044 3.39923 14.2152 3.57158 14.7943 3.15616C15.546 2.61685 16.6003 3.08626 16.7025 4.00577C16.7812 4.71404 17.4519 5.20128 18.1498 5.05729C19.0559 4.87036 19.8281 5.728 19.5475 6.60959C19.3314 7.28865 19.7458 8.00654 20.442 8.15887C21.3458 8.35664 21.7024 9.45423 21.0875 10.1455C20.6138 10.6779 20.7005 11.5023 21.2745 11.9246C22.0197 12.4729 21.899 13.6206 21.0561 14.002C20.4068 14.2957 20.1507 15.0841 20.5033 15.7034C20.9611 16.5074 20.3841 17.5068 19.4589 17.5124C18.7463 17.5166 18.1916 18.1327 18.2618 18.8418C18.353 19.7625 17.4194 20.4408 16.572 20.0696C15.9192 19.7837 15.1619 20.1208 14.9377 20.7972C14.6465 21.6754 13.5176 21.9154 12.8945 21.2315C12.4145 20.7048 11.5855 20.7048 11.1055 21.2315C10.4824 21.9154 9.3535 21.6754 9.06234 20.7972C8.83807 20.1208 8.08079 19.7837 7.42805 20.0696C6.58062 20.4408 5.64696 19.7625 5.73815 18.8418C5.8084 18.1327 5.25373 17.5166 4.54111 17.5124C3.61595 17.5068 3.03891 16.5074 3.49669 15.7034C3.84931 15.0841 3.59315 14.2957 2.94387 14.002C2.10096 13.6206 1.98032 12.4729 2.72553 11.9246C3.29955 11.5023 3.3862 10.6779 2.91253 10.1455C2.2976 9.45423 2.65422 8.35664 3.55801 8.15887C4.25417 8.00654 4.66865 7.28865 4.45249 6.60959C4.17187 5.728 4.9441 4.87036 5.85019 5.05729C6.54812 5.20128 7.21875 4.71404 7.29749 4.00577C7.3997 3.08626 8.454 2.61685 9.20572 3.15617C9.78475 3.57158 10.5956 3.39923 10.9556 2.78422Z" fill="white"/>
<path d="M16.6668 8.5L10.2502 14.9167L7.3335 12" stroke="#5F00DB" stroke-width="2" stroke-linecap="round" stroke-linejoin="round"/>
</svg>
