<svg width="16" height="16" viewBox="0 0 16 16" fill="none" xmlns="http://www.w3.org/2000/svg">
<path fill-rule="evenodd" clip-rule="evenodd" d="M2 3.99935C1.63181 3.99935 1.33333 4.29783 1.33333 4.66602V11.3327C1.33333 11.7009 1.63181 11.9994 2 11.9994H9.33333C9.70152 11.9994 10 11.7009 10 11.3327V4.66602C10 4.29783 9.70152 3.99935 9.33333 3.99935H2ZM11.3333 6.70387V4.66602C11.3333 3.56145 10.4379 2.66602 9.33333 2.66602H2C0.89543 2.66602 0 3.56145 0 4.66602V11.3327C0 12.4373 0.89543 13.3327 2 13.3327H9.33333C10.4379 13.3327 11.3333 12.4373 11.3333 11.3327V9.29479L14.9458 11.8752C15.1491 12.0203 15.4163 12.0397 15.6384 11.9254C15.8604 11.8112 16 11.5824 16 11.3327V4.66599C16 4.41627 15.8604 4.18749 15.6384 4.07322C15.4163 3.95895 15.1491 3.97836 14.9458 4.12351L11.3333 6.70387ZM11.8136 7.99933L14.6667 10.0372V5.96145L11.8136 7.99933Z" fill="white"/>
</svg>
